<svg xmlns="http://www.w3.org/2000/svg" version="1.1" viewBox="-5.0 -10.0 110.0 135.0">
 <path d="m33.801 45.188 25.84-25.84c0.5625-0.5625 1.4727-0.5625 2.0352 0l25.828 25.828c2.3008 2.293 6.1484 0.99609 6.9648-0.95703 0.30469-0.72656 0.13281-1.6406-0.82422-2.5938l-30.023-30.027c-0.6875-0.6875-1.8594-1.2695-3.0078-1.4609-0.78906-0.13281-1.5117-0.070313-1.8867 0.30469l-11.117 11.117c1.8633 1.2148 1.6289 4.1484-0.58203 4.9648l-4.7773 1.7695-1.7656 4.7773c-0.81641 2.2109-3.7539 2.4414-4.9648 0.57813l-6.8164 6.8164c-3.3828 3.3789 2.0703 7.7344 5.1016 4.7148zm55.398 37.566 5.2148-1.9297-5.2148-1.9297c-0.41016-0.15234-0.71094-0.47266-0.85547-0.85547l-1.9297-5.2148-1.9297 5.2148c-0.15234 0.41016-0.47266 0.71484-0.85547 0.85547l-5.2148 1.9297 5.2148 1.9297c0.41406 0.15234 0.71484 0.47266 0.85547 0.85156l1.9297 5.2148 1.9297-5.2148c0.15234-0.41016 0.47266-0.71484 0.85547-0.85156zm6.3906 0.69922-4.7773 1.7695-1.7656 4.7773c-0.64062 1.7344-2.6719 2.3281-4.1445 1.3906-1.1172 0.92188-2.5273 1.3945-4.1016 1.3945l-45.031 0.003906c-1.6406 0-3.0977-0.64844-4.2031-1.8633l-11.074-12.207h-1.7344v4.7188c0 0.79297-0.64453 1.4375-1.4375 1.4375l-13.383-0.007812c-0.78906 0-1.4336-0.64063-1.4336-1.4336l-0.007812-36.746c0-0.79297 0.64453-1.4375 1.4375-1.4375h13.383c0.79297 0 1.4375 0.64453 1.4375 1.4375v4.7148h14.625v-2.6211c-3.1992 1.0977-6.8828-0.75781-8.1836-3.7891-0.86328-2.0195-0.65234-4.4336 1.4648-6.5508l7.6953-7.6953-0.90234-2.4453-4.7773-1.7695c-2.4414-0.90234-2.4414-4.3516 0-5.2539l4.7773-1.7656 1.7695-4.7773c0.90234-2.4414 4.3516-2.4414 5.2539 0l1.7656 4.7773 2.4453 0.90234 12-12c2.3516-2.3516 6.9414-0.86719 8.9609 1.1562l8.4336 8.4336v-8.3398c0-0.79297 0.64453-1.4375 1.4375-1.4375h10.973c0.79297 0 1.4375 0.64453 1.4375 1.4375v22.188l7.7461 7.7461c3.5117 3.5117 1.5039 7.6523-2.3008 9.1328-1.6641 0.64844-3.6406 0.76953-5.4414 0.085937v21.445c0.48438 0.30859 0.88281 0.76953 1.1094 1.3945l1.7656 4.7773 4.7773 1.7656c2.4414 0.90234 2.4414 4.3516 0 5.2539zm-12.211 5.4375c-0.65625 0.69922-1.5352 1.0234-2.5781 1.0234l-45.031 0.007813c-0.84766 0-1.5156-0.30859-2.0781-0.92578l-11.445-12.617c-0.26172-0.32812-0.66797-0.53516-1.1172-0.53516h-2.3672v-21.562h18.062c0.81641 0 1.4727 0.27734 2.0352 0.87109l19.691 20.719c1.0234 1.1914 1.1445 2.4609 0.71875 3.5156-0.21094 0.52344-0.56641 1.0156-0.97656 1.4023-1.5312 1.4453-3.9141 1.7383-5.7227 0.0625l-14.238-13.164c-0.57812-0.53516-1.4844-0.50391-2.0234 0.078125-0.53516 0.57812-0.50391 1.4844 0.078125 2.0234l14.238 13.164c3.3867 3.1289 8.082 2.1562 10.441-0.97656h14.59c0.28516 0.64453 0.81641 1.1914 1.5898 1.4805l4.7773 1.7695 1.3594 3.6719zm-7.3789-9.793h-3.3398l-0.007812-19.426c-0.003906-6.543-5.3398-11.875-11.875-11.875-6.7578 0-12.125 5.2148-12.125 11.883v1.6172l-7.7148-8.1172c-0.55078-0.57813-1.1758-1.0195-1.875-1.3203-1.0234-0.4375-1.7383-0.44922-2.8008-0.44922v-4.6055l24.398-24.398 24.398 24.398v23.371c-0.55078 0.30469-1.0117 0.79688-1.2656 1.4844l-1.7695 4.7773-4.7773 1.7656c-0.52734 0.19531-0.94141 0.51172-1.2422 0.89844zm-35.363-57.121 5.2148 1.9297-5.2148 1.9297c-0.38281 0.14062-0.70312 0.44141-0.85156 0.85156l-1.9297 5.2148-1.9297-5.2148c-0.14062-0.38281-0.44141-0.70312-0.85547-0.85156l-5.2148-1.9297 5.2148-1.9297c0.38281-0.14062 0.70313-0.44141 0.85547-0.85547l1.9297-5.2148 1.9297 5.2148c0.14062 0.38281 0.44141 0.70312 0.85156 0.85547zm36.324-1.0977v-9.7773h8.0938v17.871zm-71.59 27.246v33.871h10.512v-33.871zm55.258 25.773c1.4922 1.6289 1.9414 3.543 1.6758 5.1992h7.4883l-0.007813-19.426c-0.003906-4.957-4.0469-9-9.0117-9-5.1719 0-9.2461 3.8984-9.2461 9.0039v4.6445z" fill-rule="evenodd"/>
<text x="0.0" y="117.5" font-size="5.0" font-weight="bold" font-family="Arbeit Regular, Helvetica, Arial-Unicode, Arial, Sans-serif" fill="#000000">Created by Rusma Ratri Handini</text><text x="0.0" y="122.5" font-size="5.0" font-weight="bold" font-family="Arbeit Regular, Helvetica, Arial-Unicode, Arial, Sans-serif" fill="#000000">from Noun Project</text></svg>